<svg width="20" height="20" viewBox="0 0 20 20" fill="none" xmlns="http://www.w3.org/2000/svg">
<path d="M16.429 4.28531C16.7105 4.28531 16.9891 4.34074 17.2491 4.44844C17.5091 4.55614 17.7454 4.71399 17.9444 4.91299C18.1434 5.11198 18.3012 5.34823 18.4089 5.60823C18.5166 5.86823 18.5721 6.1469 18.5721 6.42833C18.5721 6.70975 18.5166 6.98842 18.4089 7.24842C18.3012 7.50842 18.1434 7.74467 17.9444 7.94366C17.7454 8.14266 17.5091 8.30052 17.2491 8.40821C16.9891 8.51591 16.7105 8.57134 16.429 8.57134C15.8607 8.57134 15.3156 8.34556 14.9137 7.94366C14.5118 7.54177 14.286 6.99669 14.286 6.42833C14.286 5.85996 14.5118 5.31488 14.9137 4.91299C15.3156 4.51109 15.8607 4.28531 16.429 4.28531ZM12.9288 7.14266C13.1058 8.0099 13.5985 8.78051 14.3114 9.3051C15.0244 9.8297 15.9067 10.0709 16.7873 9.98193C17.6679 9.89297 18.4842 9.48018 19.0778 8.82361C19.6713 8.16704 20 7.31344 20 6.42833C20 5.54321 19.6713 4.68962 19.0778 4.03304C18.4842 3.37647 17.6679 2.96369 16.7873 2.87472C15.9067 2.78576 15.0244 3.02696 14.3114 3.55155C13.5985 4.07614 13.1058 4.84675 12.9288 5.71399H12.143C11.3852 5.71399 10.6584 6.01503 10.1226 6.55089C9.5867 7.08674 9.28566 7.81352 9.28566 8.57134V11.4287C9.28566 11.8076 9.13514 12.171 8.86721 12.4389C8.59928 12.7068 8.23589 12.8574 7.85699 12.8574H7.07121C6.89419 11.9901 6.40146 11.2195 5.68855 10.6949C4.97564 10.1703 4.09334 9.92914 3.2127 10.0181C2.33206 10.1071 1.51583 10.5198 0.922241 11.1764C0.328653 11.833 0 12.6866 0 13.5717C0 14.4568 0.328653 15.3104 0.922241 15.967C1.51583 16.6236 2.33206 17.0363 3.2127 17.1253C4.09334 17.2143 4.97564 16.9731 5.68855 16.4485C6.40146 15.9239 6.89419 15.1533 7.07121 14.286H7.85699C8.6148 14.286 9.34158 13.985 9.87744 13.4491C10.4133 12.9133 10.7143 12.1865 10.7143 11.4287V8.57134C10.7143 8.19243 10.8649 7.82904 11.1328 7.56111C11.4007 7.29318 11.7641 7.14266 12.143 7.14266H12.9288ZM5.71397 13.5717C5.71397 13.8531 5.65854 14.1318 5.55085 14.3918C5.44315 14.6518 5.2853 14.888 5.0863 15.087C4.8873 15.286 4.65106 15.4439 4.39106 15.5516C4.13105 15.6593 3.85238 15.7147 3.57096 15.7147C3.28954 15.7147 3.01087 15.6593 2.75086 15.5516C2.49086 15.4439 2.25462 15.286 2.05562 15.087C1.85662 14.888 1.69877 14.6518 1.59107 14.3918C1.48338 14.1318 1.42795 13.8531 1.42795 13.5717C1.42795 13.0033 1.65373 12.4583 2.05562 12.0564C2.45751 11.6545 3.0026 11.4287 3.57096 11.4287C4.13932 11.4287 4.68441 11.6545 5.0863 12.0564C5.48819 12.4583 5.71397 13.0033 5.71397 13.5717Z" fill="#D1FFAC"/>
</svg>
